<mxfile host="app.diagrams.net" modified="2024-05-15T20:41:52.722Z" agent="Mozilla/5.0 (Windows NT 10.0; Win64; x64) AppleWebKit/537.36 (KHTML, like Gecko) Chrome/124.0.0.0 Safari/537.36 Edg/124.0.0.0" etag="SFr_2CHGSdIXHiUz3sTE" version="24.4.0" type="github" pages="2">
  <diagram name="GrafoPDF_1A_V2" id="iuFTJz5hoCqf4iURwGzV">
    <mxGraphModel dx="892" dy="823" grid="1" gridSize="10" guides="1" tooltips="1" connect="1" arrows="1" fold="1" page="1" pageScale="1" pageWidth="827" pageHeight="1169" math="0" shadow="0">
      <root>
        <mxCell id="0kRYWH1Po_uBA_OxhOOm-0" />
        <mxCell id="0kRYWH1Po_uBA_OxhOOm-1" parent="0kRYWH1Po_uBA_OxhOOm-0" />
        <mxCell id="0kRYWH1Po_uBA_OxhOOm-10" value="&lt;div&gt;&lt;span style=&quot;font-size: 18px;&quot;&gt;Public Sub Using_IF()&lt;/span&gt;&lt;/div&gt;&lt;div&gt;&lt;span style=&quot;font-size: 18px; background-color: initial;&quot;&gt;{&lt;/span&gt;&lt;br&gt;&lt;/div&gt;&lt;div&gt;&lt;span style=&quot;background-color: initial; font-size: 18px;&quot;&gt;&lt;span style=&quot;white-space: pre;&quot;&gt;&#x9;&lt;/span&gt;cout&amp;lt;&amp;lt;&quot;Ingrese un numero&quot;;&lt;span style=&quot;white-space: pre;&quot;&gt;&#x9;&lt;/span&gt;&lt;span style=&quot;white-space: pre;&quot;&gt;&#x9;&lt;/span&gt;&lt;span style=&quot;white-space: pre;&quot;&gt;&#x9;&lt;/span&gt;&lt;font color=&quot;#009900&quot;&gt;(Nodo 1)&lt;/font&gt;&lt;/span&gt;&lt;br&gt;&lt;/div&gt;&lt;div&gt;&lt;span style=&quot;font-size: 18px;&quot;&gt;&lt;span style=&quot;white-space: pre;&quot;&gt;&#x9;&lt;/span&gt;cin&amp;gt;&amp;gt;X;&lt;span style=&quot;white-space: pre;&quot;&gt;&#x9;&lt;/span&gt;&lt;span style=&quot;white-space: pre;&quot;&gt;&#x9;&lt;/span&gt;&lt;span style=&quot;white-space: pre;&quot;&gt;&#x9;&lt;/span&gt;&lt;span style=&quot;white-space: pre;&quot;&gt;&#x9;&lt;/span&gt;&lt;span style=&quot;white-space: pre;&quot;&gt;&#x9;&lt;/span&gt;&lt;span style=&quot;white-space: pre;&quot;&gt;&#x9;&lt;/span&gt;&lt;span style=&quot;white-space: pre;&quot;&gt;&#x9;&lt;/span&gt;&lt;font color=&quot;#009900&quot;&gt;(Nodo 2)&lt;/font&gt;&lt;/span&gt;&lt;/div&gt;&lt;div&gt;&lt;span style=&quot;font-size: 18px;&quot;&gt;&lt;span style=&quot;white-space: pre;&quot;&gt;&#x9;&lt;/span&gt;if (X==0)&lt;span style=&quot;white-space: pre;&quot;&gt;&#x9;&lt;/span&gt;&lt;span style=&quot;white-space: pre;&quot;&gt;&#x9;&lt;/span&gt;&lt;span style=&quot;white-space: pre;&quot;&gt;&#x9;&lt;/span&gt;&lt;span style=&quot;white-space: pre;&quot;&gt;&#x9;&lt;/span&gt;&lt;span style=&quot;white-space: pre;&quot;&gt;&#x9;&lt;/span&gt;&lt;span style=&quot;white-space: pre;&quot;&gt;&#x9;&lt;/span&gt;&lt;span style=&quot;white-space: pre;&quot;&gt;&#x9;&lt;/span&gt;&lt;font color=&quot;#009900&quot;&gt;(Nodo 3)&lt;/font&gt;&lt;/span&gt;&lt;/div&gt;&lt;div&gt;&lt;span style=&quot;font-size: 18px;&quot;&gt;&lt;span style=&quot;white-space: pre;&quot;&gt;&#x9;&lt;/span&gt;&lt;span style=&quot;white-space: pre;&quot;&gt;&#x9;&lt;/span&gt;cout&amp;lt;&amp;lt;&quot; el numero es cero&quot;;&lt;span style=&quot;white-space: pre;&quot;&gt;&#x9;&lt;/span&gt;&lt;span style=&quot;white-space: pre;&quot;&gt;&#x9;&lt;/span&gt;&lt;font color=&quot;#009900&quot;&gt;(Nodo 4)&lt;/font&gt;&lt;/span&gt;&lt;/div&gt;&lt;div&gt;&lt;span style=&quot;font-size: 18px;&quot;&gt;&lt;span style=&quot;white-space: pre;&quot;&gt;&#x9;&lt;/span&gt;else if (X&amp;lt;1)&lt;span style=&quot;white-space: pre;&quot;&gt;&#x9;&lt;/span&gt;&lt;span style=&quot;white-space: pre;&quot;&gt;&#x9;&lt;/span&gt;&lt;span style=&quot;white-space: pre;&quot;&gt;&#x9;&lt;/span&gt;&lt;span style=&quot;white-space: pre;&quot;&gt;&#x9;&lt;/span&gt;&lt;span style=&quot;white-space: pre;&quot;&gt;&#x9;&lt;/span&gt;&lt;span style=&quot;white-space: pre;&quot;&gt;&#x9;&lt;/span&gt;&lt;font color=&quot;#009900&quot;&gt;(Nodo 5)&lt;/font&gt;&lt;/span&gt;&lt;/div&gt;&lt;div&gt;&lt;span style=&quot;font-size: 18px; background-color: initial;&quot;&gt;&lt;span style=&quot;white-space: pre;&quot;&gt;&#x9;&lt;/span&gt;&lt;span style=&quot;white-space: pre;&quot;&gt;&#x9;&lt;/span&gt;cout&amp;lt;&amp;lt;&quot; el numero es negativo&quot;;&lt;span style=&quot;white-space: pre;&quot;&gt;&#x9;&lt;/span&gt;&lt;font color=&quot;#009900&quot;&gt;(Nodo 6)&lt;/font&gt;&lt;/span&gt;&lt;br&gt;&lt;/div&gt;&lt;div&gt;&lt;span style=&quot;font-size: 18px;&quot;&gt;&lt;span style=&quot;white-space: pre;&quot;&gt;&#x9;&lt;/span&gt;else&lt;/span&gt;&lt;/div&gt;&lt;div&gt;&lt;span style=&quot;font-size: 18px;&quot;&gt;&lt;span style=&quot;white-space: pre;&quot;&gt;&#x9;&lt;/span&gt;cout&amp;lt;&amp;lt;&quot; el numero es positivo&quot;&lt;span style=&quot;white-space: pre;&quot;&gt;&#x9;&lt;/span&gt;&lt;span style=&quot;white-space: pre;&quot;&gt;&#x9;&lt;/span&gt;&lt;font color=&quot;#009900&quot;&gt;(Nodo 7)&lt;/font&gt;&lt;/span&gt;&lt;/div&gt;&lt;div&gt;&lt;span style=&quot;font-size: 18px;&quot;&gt;}&lt;br&gt;&lt;/span&gt;&lt;/div&gt;" style="text;html=1;align=left;verticalAlign=middle;resizable=0;points=[];autosize=1;strokeColor=none;fillColor=none;" vertex="1" parent="0kRYWH1Po_uBA_OxhOOm-1">
          <mxGeometry x="189" y="80" width="450" height="250" as="geometry" />
        </mxCell>
        <mxCell id="0kRYWH1Po_uBA_OxhOOm-17" style="edgeStyle=orthogonalEdgeStyle;rounded=0;orthogonalLoop=1;jettySize=auto;html=1;entryX=0.5;entryY=0;entryDx=0;entryDy=0;" edge="1" parent="0kRYWH1Po_uBA_OxhOOm-1" target="0kRYWH1Po_uBA_OxhOOm-18">
          <mxGeometry relative="1" as="geometry">
            <mxPoint x="458.14" y="350" as="targetPoint" />
            <mxPoint x="400" y="360" as="sourcePoint" />
          </mxGeometry>
        </mxCell>
        <mxCell id="0kRYWH1Po_uBA_OxhOOm-18" value="1" style="ellipse;whiteSpace=wrap;html=1;aspect=fixed;" vertex="1" parent="0kRYWH1Po_uBA_OxhOOm-1">
          <mxGeometry x="360" y="400" width="80" height="80" as="geometry" />
        </mxCell>
        <mxCell id="0kRYWH1Po_uBA_OxhOOm-19" style="rounded=0;orthogonalLoop=1;jettySize=auto;html=1;entryX=0;entryY=0;entryDx=0;entryDy=0;exitX=1;exitY=1;exitDx=0;exitDy=0;" edge="1" parent="0kRYWH1Po_uBA_OxhOOm-1" source="0kRYWH1Po_uBA_OxhOOm-26" target="0kRYWH1Po_uBA_OxhOOm-25">
          <mxGeometry relative="1" as="geometry">
            <mxPoint x="425.42427124745836" y="780.0042712474585" as="sourcePoint" />
          </mxGeometry>
        </mxCell>
        <mxCell id="0kRYWH1Po_uBA_OxhOOm-20" style="edgeStyle=orthogonalEdgeStyle;rounded=0;orthogonalLoop=1;jettySize=auto;html=1;exitX=0.5;exitY=1;exitDx=0;exitDy=0;entryX=0.5;entryY=0;entryDx=0;entryDy=0;" edge="1" parent="0kRYWH1Po_uBA_OxhOOm-1" source="0kRYWH1Po_uBA_OxhOOm-21" target="0kRYWH1Po_uBA_OxhOOm-26">
          <mxGeometry relative="1" as="geometry" />
        </mxCell>
        <mxCell id="0kRYWH1Po_uBA_OxhOOm-21" value="2" style="ellipse;whiteSpace=wrap;html=1;aspect=fixed;" vertex="1" parent="0kRYWH1Po_uBA_OxhOOm-1">
          <mxGeometry x="360" y="520" width="80" height="80" as="geometry" />
        </mxCell>
        <mxCell id="0kRYWH1Po_uBA_OxhOOm-22" style="edgeStyle=orthogonalEdgeStyle;rounded=0;orthogonalLoop=1;jettySize=auto;html=1;entryX=0.5;entryY=0;entryDx=0;entryDy=0;exitX=0.5;exitY=1;exitDx=0;exitDy=0;" edge="1" parent="0kRYWH1Po_uBA_OxhOOm-1" source="0kRYWH1Po_uBA_OxhOOm-18" target="0kRYWH1Po_uBA_OxhOOm-21">
          <mxGeometry relative="1" as="geometry">
            <mxPoint x="458.14" y="510" as="targetPoint" />
            <mxPoint x="508.14" y="540" as="sourcePoint" />
          </mxGeometry>
        </mxCell>
        <mxCell id="0kRYWH1Po_uBA_OxhOOm-23" style="rounded=0;orthogonalLoop=1;jettySize=auto;html=1;entryX=1;entryY=0;entryDx=0;entryDy=0;exitX=0;exitY=1;exitDx=0;exitDy=0;" edge="1" parent="0kRYWH1Po_uBA_OxhOOm-1" source="0kRYWH1Po_uBA_OxhOOm-26" target="0kRYWH1Po_uBA_OxhOOm-24">
          <mxGeometry relative="1" as="geometry">
            <mxPoint x="399.5" y="1033.44" as="targetPoint" />
            <mxPoint x="369.21599455481623" y="780.3600055848037" as="sourcePoint" />
          </mxGeometry>
        </mxCell>
        <mxCell id="0kRYWH1Po_uBA_OxhOOm-24" value="5" style="ellipse;whiteSpace=wrap;html=1;aspect=fixed;" vertex="1" parent="0kRYWH1Po_uBA_OxhOOm-1">
          <mxGeometry x="280" y="720" width="80" height="80" as="geometry" />
        </mxCell>
        <mxCell id="0kRYWH1Po_uBA_OxhOOm-25" value="4" style="ellipse;whiteSpace=wrap;html=1;aspect=fixed;" vertex="1" parent="0kRYWH1Po_uBA_OxhOOm-1">
          <mxGeometry x="440" y="720" width="80" height="80" as="geometry" />
        </mxCell>
        <mxCell id="0kRYWH1Po_uBA_OxhOOm-26" value="3" style="ellipse;whiteSpace=wrap;html=1;aspect=fixed;" vertex="1" parent="0kRYWH1Po_uBA_OxhOOm-1">
          <mxGeometry x="360" y="640" width="80" height="80" as="geometry" />
        </mxCell>
        <mxCell id="0kRYWH1Po_uBA_OxhOOm-27" style="rounded=0;orthogonalLoop=1;jettySize=auto;html=1;entryX=1;entryY=0;entryDx=0;entryDy=0;exitX=0;exitY=1;exitDx=0;exitDy=0;" edge="1" parent="0kRYWH1Po_uBA_OxhOOm-1" source="0kRYWH1Po_uBA_OxhOOm-24" target="0kRYWH1Po_uBA_OxhOOm-28">
          <mxGeometry relative="1" as="geometry">
            <mxPoint x="279.5" y="1153.44" as="targetPoint" />
            <mxPoint x="260" y="1091.72" as="sourcePoint" />
          </mxGeometry>
        </mxCell>
        <mxCell id="0kRYWH1Po_uBA_OxhOOm-28" value="7" style="ellipse;whiteSpace=wrap;html=1;aspect=fixed;" vertex="1" parent="0kRYWH1Po_uBA_OxhOOm-1">
          <mxGeometry x="200" y="800" width="80" height="80" as="geometry" />
        </mxCell>
        <mxCell id="0kRYWH1Po_uBA_OxhOOm-29" style="rounded=0;orthogonalLoop=1;jettySize=auto;html=1;entryX=0;entryY=0;entryDx=0;entryDy=0;exitX=1;exitY=1;exitDx=0;exitDy=0;" edge="1" parent="0kRYWH1Po_uBA_OxhOOm-1" source="0kRYWH1Po_uBA_OxhOOm-24" target="0kRYWH1Po_uBA_OxhOOm-30">
          <mxGeometry relative="1" as="geometry">
            <mxPoint x="360" y="1051.72" as="sourcePoint" />
          </mxGeometry>
        </mxCell>
        <mxCell id="0kRYWH1Po_uBA_OxhOOm-30" value="6" style="ellipse;whiteSpace=wrap;html=1;aspect=fixed;" vertex="1" parent="0kRYWH1Po_uBA_OxhOOm-1">
          <mxGeometry x="360" y="800" width="80" height="80" as="geometry" />
        </mxCell>
      </root>
    </mxGraphModel>
  </diagram>
  <diagram name="GrafoPDF_1A" id="jqIKGWksoTRJcO-xTmaL">
    <mxGraphModel dx="892" dy="823" grid="1" gridSize="10" guides="1" tooltips="1" connect="1" arrows="1" fold="1" page="1" pageScale="1" pageWidth="827" pageHeight="1169" math="0" shadow="0">
      <root>
        <mxCell id="0" />
        <mxCell id="1" parent="0" />
        <mxCell id="-NYX0XDaKY13qXoPd71R-2" style="edgeStyle=orthogonalEdgeStyle;rounded=0;orthogonalLoop=1;jettySize=auto;html=1;entryX=0.5;entryY=0;entryDx=0;entryDy=0;" parent="1" target="-NYX0XDaKY13qXoPd71R-1" edge="1">
          <mxGeometry relative="1" as="geometry">
            <mxPoint x="331.14" y="310" as="targetPoint" />
            <mxPoint x="273" y="320" as="sourcePoint" />
          </mxGeometry>
        </mxCell>
        <mxCell id="-NYX0XDaKY13qXoPd71R-1" value="&quot;Ingrese numero&quot;" style="ellipse;whiteSpace=wrap;html=1;aspect=fixed;" parent="1" vertex="1">
          <mxGeometry x="233" y="360" width="80" height="80" as="geometry" />
        </mxCell>
        <mxCell id="-NYX0XDaKY13qXoPd71R-11" style="rounded=0;orthogonalLoop=1;jettySize=auto;html=1;entryX=0;entryY=0;entryDx=0;entryDy=0;exitX=1;exitY=1;exitDx=0;exitDy=0;" parent="1" source="-NYX0XDaKY13qXoPd71R-12" target="-NYX0XDaKY13qXoPd71R-10" edge="1">
          <mxGeometry relative="1" as="geometry">
            <mxPoint x="298.42427124745836" y="740.0042712474585" as="sourcePoint" />
          </mxGeometry>
        </mxCell>
        <mxCell id="-NYX0XDaKY13qXoPd71R-20" style="edgeStyle=orthogonalEdgeStyle;rounded=0;orthogonalLoop=1;jettySize=auto;html=1;exitX=0.5;exitY=1;exitDx=0;exitDy=0;entryX=0.5;entryY=0;entryDx=0;entryDy=0;" parent="1" source="-NYX0XDaKY13qXoPd71R-5" target="-NYX0XDaKY13qXoPd71R-12" edge="1">
          <mxGeometry relative="1" as="geometry" />
        </mxCell>
        <mxCell id="-NYX0XDaKY13qXoPd71R-5" value="X" style="ellipse;whiteSpace=wrap;html=1;aspect=fixed;" parent="1" vertex="1">
          <mxGeometry x="233" y="480" width="80" height="80" as="geometry" />
        </mxCell>
        <mxCell id="-NYX0XDaKY13qXoPd71R-6" style="edgeStyle=orthogonalEdgeStyle;rounded=0;orthogonalLoop=1;jettySize=auto;html=1;entryX=0.5;entryY=0;entryDx=0;entryDy=0;exitX=0.5;exitY=1;exitDx=0;exitDy=0;" parent="1" source="-NYX0XDaKY13qXoPd71R-1" target="-NYX0XDaKY13qXoPd71R-5" edge="1">
          <mxGeometry relative="1" as="geometry">
            <mxPoint x="331.14" y="470" as="targetPoint" />
            <mxPoint x="381.14" y="500" as="sourcePoint" />
          </mxGeometry>
        </mxCell>
        <mxCell id="-NYX0XDaKY13qXoPd71R-7" style="rounded=0;orthogonalLoop=1;jettySize=auto;html=1;entryX=1;entryY=0;entryDx=0;entryDy=0;exitX=0;exitY=1;exitDx=0;exitDy=0;" parent="1" source="-NYX0XDaKY13qXoPd71R-12" target="-NYX0XDaKY13qXoPd71R-8" edge="1">
          <mxGeometry relative="1" as="geometry">
            <mxPoint x="272.5" y="993.44" as="targetPoint" />
            <mxPoint x="242.21599455481623" y="740.3600055848037" as="sourcePoint" />
          </mxGeometry>
        </mxCell>
        <mxCell id="-NYX0XDaKY13qXoPd71R-8" value="X &amp;lt; 1" style="ellipse;whiteSpace=wrap;html=1;aspect=fixed;" parent="1" vertex="1">
          <mxGeometry x="153" y="680" width="80" height="80" as="geometry" />
        </mxCell>
        <mxCell id="-NYX0XDaKY13qXoPd71R-9" value="&lt;div&gt;&lt;span style=&quot;font-size: 18px;&quot;&gt;Public Sub Using_IF()&lt;/span&gt;&lt;/div&gt;&lt;div&gt;&lt;span style=&quot;font-size: 18px; background-color: initial;&quot;&gt;{&lt;/span&gt;&lt;br&gt;&lt;/div&gt;&lt;div&gt;&lt;span style=&quot;background-color: initial; font-size: 18px;&quot;&gt;&lt;span style=&quot;white-space: pre;&quot;&gt;&#x9;&lt;/span&gt;cout&amp;lt;&amp;lt;&quot;Ingrese un numero&quot;;&lt;span style=&quot;white-space: pre;&quot;&gt;&#x9;&lt;/span&gt;&lt;span style=&quot;white-space: pre;&quot;&gt;&#x9;&lt;/span&gt;&lt;span style=&quot;white-space: pre;&quot;&gt;&#x9;&lt;/span&gt;&lt;font color=&quot;#009900&quot;&gt;(1)&lt;/font&gt;&lt;/span&gt;&lt;br&gt;&lt;/div&gt;&lt;div&gt;&lt;span style=&quot;font-size: 18px;&quot;&gt;&lt;span style=&quot;white-space: pre;&quot;&gt;&#x9;&lt;/span&gt;cin&amp;gt;&amp;gt;X;&lt;span style=&quot;white-space: pre;&quot;&gt;&#x9;&lt;/span&gt;&lt;span style=&quot;white-space: pre;&quot;&gt;&#x9;&lt;/span&gt;&lt;span style=&quot;white-space: pre;&quot;&gt;&#x9;&lt;/span&gt;&lt;span style=&quot;white-space: pre;&quot;&gt;&#x9;&lt;/span&gt;&lt;span style=&quot;white-space: pre;&quot;&gt;&#x9;&lt;/span&gt;&lt;span style=&quot;white-space: pre;&quot;&gt;&#x9;&lt;/span&gt;&lt;span style=&quot;white-space: pre;&quot;&gt;&#x9;&lt;/span&gt;&lt;font color=&quot;#009900&quot;&gt;(2)&lt;/font&gt;&lt;/span&gt;&lt;/div&gt;&lt;div&gt;&lt;span style=&quot;font-size: 18px;&quot;&gt;&lt;span style=&quot;white-space: pre;&quot;&gt;&#x9;&lt;/span&gt;if (X==0)&lt;span style=&quot;white-space: pre;&quot;&gt;&#x9;&lt;/span&gt;&lt;span style=&quot;white-space: pre;&quot;&gt;&#x9;&lt;/span&gt;&lt;span style=&quot;white-space: pre;&quot;&gt;&#x9;&lt;/span&gt;&lt;span style=&quot;white-space: pre;&quot;&gt;&#x9;&lt;/span&gt;&lt;span style=&quot;white-space: pre;&quot;&gt;&#x9;&lt;/span&gt;&lt;span style=&quot;white-space: pre;&quot;&gt;&#x9;&lt;/span&gt;&lt;span style=&quot;white-space: pre;&quot;&gt;&#x9;&lt;/span&gt;&lt;font color=&quot;#009900&quot;&gt;(3)&lt;/font&gt;&lt;/span&gt;&lt;/div&gt;&lt;div&gt;&lt;span style=&quot;font-size: 18px;&quot;&gt;&lt;span style=&quot;white-space: pre;&quot;&gt;&#x9;&lt;/span&gt;&lt;span style=&quot;white-space: pre;&quot;&gt;&#x9;&lt;/span&gt;cout&amp;lt;&amp;lt;&quot; el numero es cero&quot;;&lt;span style=&quot;white-space: pre;&quot;&gt;&#x9;&lt;/span&gt;&lt;span style=&quot;white-space: pre;&quot;&gt;&#x9;&lt;/span&gt;&lt;font color=&quot;#009900&quot;&gt;(4)&lt;/font&gt;&lt;/span&gt;&lt;/div&gt;&lt;div&gt;&lt;span style=&quot;font-size: 18px;&quot;&gt;&lt;span style=&quot;white-space: pre;&quot;&gt;&#x9;&lt;/span&gt;else if (X&amp;lt;1)&lt;span style=&quot;white-space: pre;&quot;&gt;&#x9;&lt;/span&gt;&lt;span style=&quot;white-space: pre;&quot;&gt;&#x9;&lt;/span&gt;&lt;span style=&quot;white-space: pre;&quot;&gt;&#x9;&lt;/span&gt;&lt;span style=&quot;white-space: pre;&quot;&gt;&#x9;&lt;/span&gt;&lt;span style=&quot;white-space: pre;&quot;&gt;&#x9;&lt;/span&gt;&lt;span style=&quot;white-space: pre;&quot;&gt;&#x9;&lt;/span&gt;&lt;font color=&quot;#009900&quot;&gt;(5)&lt;/font&gt;&lt;/span&gt;&lt;/div&gt;&lt;div&gt;&lt;span style=&quot;font-size: 18px; background-color: initial;&quot;&gt;&lt;span style=&quot;white-space: pre;&quot;&gt;&#x9;&lt;/span&gt;&lt;span style=&quot;white-space: pre;&quot;&gt;&#x9;&lt;/span&gt;cout&amp;lt;&amp;lt;&quot; el numero es negativo&quot;;&lt;span style=&quot;white-space: pre;&quot;&gt;&#x9;&lt;/span&gt;&lt;font color=&quot;#009900&quot;&gt;(6)&lt;/font&gt;&lt;/span&gt;&lt;br&gt;&lt;/div&gt;&lt;div&gt;&lt;span style=&quot;font-size: 18px;&quot;&gt;&lt;span style=&quot;white-space: pre;&quot;&gt;&#x9;&lt;/span&gt;else&lt;/span&gt;&lt;/div&gt;&lt;div&gt;&lt;span style=&quot;font-size: 18px;&quot;&gt;&lt;span style=&quot;white-space: pre;&quot;&gt;&#x9;&lt;/span&gt;cout&amp;lt;&amp;lt;&quot; el numero es positivo&quot;&lt;span style=&quot;white-space: pre;&quot;&gt;&#x9;&lt;/span&gt;&lt;span style=&quot;white-space: pre;&quot;&gt;&#x9;&lt;/span&gt;&lt;font color=&quot;#009900&quot;&gt;(7)&lt;/font&gt;&lt;/span&gt;&lt;/div&gt;&lt;div&gt;&lt;span style=&quot;font-size: 18px;&quot;&gt;}&lt;br&gt;&lt;/span&gt;&lt;/div&gt;" style="text;html=1;align=left;verticalAlign=middle;resizable=0;points=[];autosize=1;strokeColor=none;fillColor=none;" parent="1" vertex="1">
          <mxGeometry x="40" y="40" width="410" height="250" as="geometry" />
        </mxCell>
        <mxCell id="-NYX0XDaKY13qXoPd71R-10" value="&quot;el numero es cero&quot;" style="ellipse;whiteSpace=wrap;html=1;aspect=fixed;" parent="1" vertex="1">
          <mxGeometry x="313" y="680" width="80" height="80" as="geometry" />
        </mxCell>
        <mxCell id="-NYX0XDaKY13qXoPd71R-12" value="X == 0" style="ellipse;whiteSpace=wrap;html=1;aspect=fixed;" parent="1" vertex="1">
          <mxGeometry x="233" y="600" width="80" height="80" as="geometry" />
        </mxCell>
        <mxCell id="-NYX0XDaKY13qXoPd71R-14" style="rounded=0;orthogonalLoop=1;jettySize=auto;html=1;entryX=1;entryY=0;entryDx=0;entryDy=0;exitX=0;exitY=1;exitDx=0;exitDy=0;" parent="1" source="-NYX0XDaKY13qXoPd71R-8" target="-NYX0XDaKY13qXoPd71R-15" edge="1">
          <mxGeometry relative="1" as="geometry">
            <mxPoint x="152.5" y="1113.44" as="targetPoint" />
            <mxPoint x="133" y="1051.72" as="sourcePoint" />
          </mxGeometry>
        </mxCell>
        <mxCell id="-NYX0XDaKY13qXoPd71R-15" value="&quot;el numero es positivo&quot;" style="ellipse;whiteSpace=wrap;html=1;aspect=fixed;" parent="1" vertex="1">
          <mxGeometry x="73" y="760" width="80" height="80" as="geometry" />
        </mxCell>
        <mxCell id="-NYX0XDaKY13qXoPd71R-16" style="rounded=0;orthogonalLoop=1;jettySize=auto;html=1;entryX=0;entryY=0;entryDx=0;entryDy=0;exitX=1;exitY=1;exitDx=0;exitDy=0;" parent="1" source="-NYX0XDaKY13qXoPd71R-8" target="-NYX0XDaKY13qXoPd71R-17" edge="1">
          <mxGeometry relative="1" as="geometry">
            <mxPoint x="233" y="1011.72" as="sourcePoint" />
          </mxGeometry>
        </mxCell>
        <mxCell id="-NYX0XDaKY13qXoPd71R-17" value="&quot;el numero es negativo&quot;" style="ellipse;whiteSpace=wrap;html=1;aspect=fixed;" parent="1" vertex="1">
          <mxGeometry x="233" y="760" width="80" height="80" as="geometry" />
        </mxCell>
        <mxCell id="5AIKzP-8pIUtmMXK7XuX-1" style="edgeStyle=orthogonalEdgeStyle;rounded=0;orthogonalLoop=1;jettySize=auto;html=1;entryX=0.5;entryY=0;entryDx=0;entryDy=0;" parent="1" target="5AIKzP-8pIUtmMXK7XuX-2" edge="1">
          <mxGeometry relative="1" as="geometry">
            <mxPoint x="691.14" y="310" as="targetPoint" />
            <mxPoint x="633" y="320" as="sourcePoint" />
          </mxGeometry>
        </mxCell>
        <mxCell id="5AIKzP-8pIUtmMXK7XuX-2" value="1" style="ellipse;whiteSpace=wrap;html=1;aspect=fixed;" parent="1" vertex="1">
          <mxGeometry x="593" y="360" width="80" height="80" as="geometry" />
        </mxCell>
        <mxCell id="5AIKzP-8pIUtmMXK7XuX-3" style="rounded=0;orthogonalLoop=1;jettySize=auto;html=1;entryX=0;entryY=0;entryDx=0;entryDy=0;exitX=1;exitY=1;exitDx=0;exitDy=0;" parent="1" source="5AIKzP-8pIUtmMXK7XuX-10" target="5AIKzP-8pIUtmMXK7XuX-9" edge="1">
          <mxGeometry relative="1" as="geometry">
            <mxPoint x="658.4242712474584" y="740.0042712474585" as="sourcePoint" />
          </mxGeometry>
        </mxCell>
        <mxCell id="5AIKzP-8pIUtmMXK7XuX-4" style="edgeStyle=orthogonalEdgeStyle;rounded=0;orthogonalLoop=1;jettySize=auto;html=1;exitX=0.5;exitY=1;exitDx=0;exitDy=0;entryX=0.5;entryY=0;entryDx=0;entryDy=0;" parent="1" source="5AIKzP-8pIUtmMXK7XuX-5" target="5AIKzP-8pIUtmMXK7XuX-10" edge="1">
          <mxGeometry relative="1" as="geometry" />
        </mxCell>
        <mxCell id="5AIKzP-8pIUtmMXK7XuX-5" value="2" style="ellipse;whiteSpace=wrap;html=1;aspect=fixed;" parent="1" vertex="1">
          <mxGeometry x="593" y="480" width="80" height="80" as="geometry" />
        </mxCell>
        <mxCell id="5AIKzP-8pIUtmMXK7XuX-6" style="edgeStyle=orthogonalEdgeStyle;rounded=0;orthogonalLoop=1;jettySize=auto;html=1;entryX=0.5;entryY=0;entryDx=0;entryDy=0;exitX=0.5;exitY=1;exitDx=0;exitDy=0;" parent="1" source="5AIKzP-8pIUtmMXK7XuX-2" target="5AIKzP-8pIUtmMXK7XuX-5" edge="1">
          <mxGeometry relative="1" as="geometry">
            <mxPoint x="691.14" y="470" as="targetPoint" />
            <mxPoint x="741.14" y="500" as="sourcePoint" />
          </mxGeometry>
        </mxCell>
        <mxCell id="5AIKzP-8pIUtmMXK7XuX-7" style="rounded=0;orthogonalLoop=1;jettySize=auto;html=1;entryX=1;entryY=0;entryDx=0;entryDy=0;exitX=0;exitY=1;exitDx=0;exitDy=0;" parent="1" source="5AIKzP-8pIUtmMXK7XuX-10" target="5AIKzP-8pIUtmMXK7XuX-8" edge="1">
          <mxGeometry relative="1" as="geometry">
            <mxPoint x="632.5" y="993.44" as="targetPoint" />
            <mxPoint x="602.2159945548162" y="740.3600055848037" as="sourcePoint" />
          </mxGeometry>
        </mxCell>
        <mxCell id="5AIKzP-8pIUtmMXK7XuX-8" value="5" style="ellipse;whiteSpace=wrap;html=1;aspect=fixed;" parent="1" vertex="1">
          <mxGeometry x="513" y="680" width="80" height="80" as="geometry" />
        </mxCell>
        <mxCell id="5AIKzP-8pIUtmMXK7XuX-9" value="4" style="ellipse;whiteSpace=wrap;html=1;aspect=fixed;" parent="1" vertex="1">
          <mxGeometry x="673" y="680" width="80" height="80" as="geometry" />
        </mxCell>
        <mxCell id="5AIKzP-8pIUtmMXK7XuX-10" value="3" style="ellipse;whiteSpace=wrap;html=1;aspect=fixed;" parent="1" vertex="1">
          <mxGeometry x="593" y="600" width="80" height="80" as="geometry" />
        </mxCell>
        <mxCell id="5AIKzP-8pIUtmMXK7XuX-11" style="rounded=0;orthogonalLoop=1;jettySize=auto;html=1;entryX=1;entryY=0;entryDx=0;entryDy=0;exitX=0;exitY=1;exitDx=0;exitDy=0;" parent="1" source="5AIKzP-8pIUtmMXK7XuX-8" target="5AIKzP-8pIUtmMXK7XuX-12" edge="1">
          <mxGeometry relative="1" as="geometry">
            <mxPoint x="512.5" y="1113.44" as="targetPoint" />
            <mxPoint x="493" y="1051.72" as="sourcePoint" />
          </mxGeometry>
        </mxCell>
        <mxCell id="5AIKzP-8pIUtmMXK7XuX-12" value="7" style="ellipse;whiteSpace=wrap;html=1;aspect=fixed;" parent="1" vertex="1">
          <mxGeometry x="433" y="760" width="80" height="80" as="geometry" />
        </mxCell>
        <mxCell id="5AIKzP-8pIUtmMXK7XuX-13" style="rounded=0;orthogonalLoop=1;jettySize=auto;html=1;entryX=0;entryY=0;entryDx=0;entryDy=0;exitX=1;exitY=1;exitDx=0;exitDy=0;" parent="1" source="5AIKzP-8pIUtmMXK7XuX-8" target="5AIKzP-8pIUtmMXK7XuX-14" edge="1">
          <mxGeometry relative="1" as="geometry">
            <mxPoint x="593" y="1011.72" as="sourcePoint" />
          </mxGeometry>
        </mxCell>
        <mxCell id="5AIKzP-8pIUtmMXK7XuX-14" value="6" style="ellipse;whiteSpace=wrap;html=1;aspect=fixed;" parent="1" vertex="1">
          <mxGeometry x="593" y="760" width="80" height="80" as="geometry" />
        </mxCell>
        <mxCell id="5AIKzP-8pIUtmMXK7XuX-17" style="rounded=0;orthogonalLoop=1;jettySize=auto;html=1;entryX=0;entryY=0;entryDx=0;entryDy=0;exitX=1;exitY=1;exitDx=0;exitDy=0;" parent="1" source="5AIKzP-8pIUtmMXK7XuX-24" target="5AIKzP-8pIUtmMXK7XuX-23" edge="1">
          <mxGeometry relative="1" as="geometry">
            <mxPoint x="705.4242712474584" y="190.00427124745852" as="sourcePoint" />
          </mxGeometry>
        </mxCell>
        <mxCell id="5AIKzP-8pIUtmMXK7XuX-18" style="edgeStyle=orthogonalEdgeStyle;rounded=0;orthogonalLoop=1;jettySize=auto;html=1;exitX=0.5;exitY=1;exitDx=0;exitDy=0;entryX=0.5;entryY=0;entryDx=0;entryDy=0;" parent="1" target="5AIKzP-8pIUtmMXK7XuX-24" edge="1">
          <mxGeometry relative="1" as="geometry">
            <mxPoint x="680" y="10" as="sourcePoint" />
          </mxGeometry>
        </mxCell>
        <mxCell id="5AIKzP-8pIUtmMXK7XuX-21" style="rounded=0;orthogonalLoop=1;jettySize=auto;html=1;entryX=1;entryY=0;entryDx=0;entryDy=0;exitX=0;exitY=1;exitDx=0;exitDy=0;" parent="1" source="5AIKzP-8pIUtmMXK7XuX-24" target="5AIKzP-8pIUtmMXK7XuX-22" edge="1">
          <mxGeometry relative="1" as="geometry">
            <mxPoint x="679.5" y="443.44000000000005" as="targetPoint" />
            <mxPoint x="649.2159945548162" y="190.36000558480373" as="sourcePoint" />
          </mxGeometry>
        </mxCell>
        <mxCell id="5AIKzP-8pIUtmMXK7XuX-22" value="5" style="ellipse;whiteSpace=wrap;html=1;aspect=fixed;" parent="1" vertex="1">
          <mxGeometry x="560" y="130" width="80" height="80" as="geometry" />
        </mxCell>
        <mxCell id="5AIKzP-8pIUtmMXK7XuX-23" value="4" style="ellipse;whiteSpace=wrap;html=1;aspect=fixed;" parent="1" vertex="1">
          <mxGeometry x="720" y="130" width="80" height="80" as="geometry" />
        </mxCell>
        <mxCell id="5AIKzP-8pIUtmMXK7XuX-24" value="1,2,3" style="ellipse;whiteSpace=wrap;html=1;aspect=fixed;" parent="1" vertex="1">
          <mxGeometry x="640" y="50" width="80" height="80" as="geometry" />
        </mxCell>
        <mxCell id="5AIKzP-8pIUtmMXK7XuX-25" style="rounded=0;orthogonalLoop=1;jettySize=auto;html=1;entryX=1;entryY=0;entryDx=0;entryDy=0;exitX=0;exitY=1;exitDx=0;exitDy=0;" parent="1" source="5AIKzP-8pIUtmMXK7XuX-22" target="5AIKzP-8pIUtmMXK7XuX-26" edge="1">
          <mxGeometry relative="1" as="geometry">
            <mxPoint x="559.5" y="563.44" as="targetPoint" />
            <mxPoint x="540" y="501.72" as="sourcePoint" />
          </mxGeometry>
        </mxCell>
        <mxCell id="5AIKzP-8pIUtmMXK7XuX-26" value="7" style="ellipse;whiteSpace=wrap;html=1;aspect=fixed;" parent="1" vertex="1">
          <mxGeometry x="480" y="210" width="80" height="80" as="geometry" />
        </mxCell>
        <mxCell id="5AIKzP-8pIUtmMXK7XuX-27" style="rounded=0;orthogonalLoop=1;jettySize=auto;html=1;entryX=0;entryY=0;entryDx=0;entryDy=0;exitX=1;exitY=1;exitDx=0;exitDy=0;" parent="1" source="5AIKzP-8pIUtmMXK7XuX-22" target="5AIKzP-8pIUtmMXK7XuX-28" edge="1">
          <mxGeometry relative="1" as="geometry">
            <mxPoint x="640" y="461.72" as="sourcePoint" />
          </mxGeometry>
        </mxCell>
        <mxCell id="5AIKzP-8pIUtmMXK7XuX-28" value="6" style="ellipse;whiteSpace=wrap;html=1;aspect=fixed;" parent="1" vertex="1">
          <mxGeometry x="640" y="210" width="80" height="80" as="geometry" />
        </mxCell>
      </root>
    </mxGraphModel>
  </diagram>
</mxfile>
